#!OML:ASF H:\Swim 2\Project 1\Capture day 1\Session 1\male.ASF
:FULLY-SPECIFIED
:DEGREES
1201
root 7.62151 10.1301 12.5479 101.602 -2.23823 5.50195
lowerback -9.48571 1.55413 0.776327
upperback -6.55159 2.07676 -2.49179
thorax -1.36937 1.0056 -2.84558
lowerneck -0.773451 -2.34311 -0.871405
upperneck 39.0235 -4.02392 3.44687
head 13.4108 -1.34158 1.13772
rclavicle -3.18055e-014 2.26615e-014
rhumerus 81.5026 -6.67991 -24.9795
rradius 27.6424
rwrist -18.2267
rhand -12.8621 -8.76022
rfingers 7.12502
rthumb 13.2261 -38.3206
lclavicle -3.18055e-014 2.26615e-014
lhumerus 93.0254 -2.44093 35.098
lradius 22.6099
lwrist 8.95549
lhand -27.5238 6.18686
lfingers 7.12502
lthumb -0.925964 36.1646
rfemur -28.0416 -4.27466 17.6596
rtibia 92.126
rfoot 30.7546 -1.51594
rtoes 27.7847
lfemur -27.6313 -2.37275 -19.967
ltibia 96.4031
lfoot 14.5585 1.22436
ltoes 42.7906
1202
root 7.62202 10.1265 12.5804 101.737 -2.24447 5.52553
lowerback -9.59821 1.5486 0.775056
upperback -6.58561 2.06959 -2.49686
thorax -1.34384 1.00206 -2.84843
lowerneck -0.813699 -2.33279 -0.954058
upperneck 39.0271 -4.01576 3.4999
head 13.4239 -1.34302 1.17438
rclavicle 2.38542e-014 -1.51076e-014
rhumerus 81.5881 -6.89501 -24.8726
rradius 27.6994
rwrist -18.0562
rhand -13.18 -8.67641
rfingers 7.12502
rthumb 12.9197 -38.2565
lclavicle 2.38542e-014 -1.51076e-014
lhumerus 93.0057 -2.12685 34.9671
lradius 22.8254
lwrist 8.89812
lhand -27.6432 5.81068
lfingers 7.12502
lthumb -1.04135 35.7879
rfemur -28.3265 -4.5639 17.498
rtibia 93.5876
rfoot 30.5366 -1.15879
rtoes 27.7222
lfemur -27.8283 -2.51705 -19.766
ltibia 97.9891
lfoot 15.0213 0.913514
ltoes 42.336
1203
root 7.62282 10.1222 12.614 101.874 -2.26171 5.5427
lowerback -9.71668 1.54744 0.765979
upperback -6.61772 2.06906 -2.50551
thorax -1.31286 1.00219 -2.84986
lowerneck -0.830935 -2.30053 -1.04856
upperneck 39.005 -3.9846 3.58261
head 13.4204 -1.33402 1.22736
rclavicle 4.77083e-015 1.35174e-014
rhumerus 81.6652 -7.11238 -24.778
rradius 27.7324
rwrist -17.8671
rhand -13.4603 -8.57455
rfingers 7.12502
rthumb 12.6495 -38.1715
lclavicle 4.77083e-015 1.35174e-014
lhumerus 92.9647 -1.81864 34.785
lradius 23.0802
lwrist 9.02744
lhand -27.8176 5.2899
lfingers 7.12502
lthumb -1.20972 35.2662
rfemur -28.6313 -4.82105 17.3228
rtibia 94.9538
rfoot 30.3002 -0.731738
rtoes 27.5581
lfemur -28.054 -2.70786 -19.5912
ltibia 99.4926
lfoot 15.4399 0.610537
ltoes 41.8743
1204
root 7.62394 10.1172 12.6487 102.02 -2.28342 5.5516
lowerback -9.84562 1.55398 0.748469
upperback -6.65031 2.07986 -2.51378
thorax -1.27638 1.0085 -2.84488
lowerneck -0.841629 -2.25385 -1.13659
upperneck 38.9797 -3.93631 3.67111
head 13.4133 -1.31635 1.28331
rclavicle 6.36111e-015 3.57812e-015
rhumerus 81.7252 -7.33118 -24.6826
rradius 27.7447
rwrist -17.634
rhand -13.7228 -8.43129
rfingers 7.12502
rthumb 12.3964 -38.0437
lclavicle 6.36111e-015 3.57812e-015
lhumerus 92.9173 -1.53458 34.6012
lradius 23.347
lwrist 9.2896
lhand -28.0351 4.64858
lfingers 7.12502
lthumb -1.41983 34.6236
rfemur -28.9637 -5.03322 17.1458
rtibia 96.2207
rfoot 30.0594 -0.228269
rtoes 27.2925
lfemur -28.3151 -2.9334 -19.4343
ltibia 100.913
lfoot 15.8237 0.319035
ltoes 41.408
1205
root 7.62507 10.112 12.6838 102.171 -2.31659 5.54427
lowerback -9.9807 1.56243 0.7166
upperback -6.68286 2.09453 -2.52288
thorax -1.23681 1.01728 -2.83215
lowerneck -0.846245 -2.19637 -1.20543
upperneck 38.9601 -3.87013 3.74111
head 13.4058 -1.29055 1.33041
rclavicle 4.45278e-014 -2.40529e-014
rhumerus 81.7615 -7.5382 -24.5242
rradius 27.758
rwrist -17.3184
rhand -14.0751 -8.27506
rfingers 7.12502
rthumb 12.0567 -37.9077
lclavicle 4.45278e-014 -2.40529e-014
lhumerus 92.8834 -1.26794 34.4691
lradius 23.6407
lwrist 9.77589
lhand -28.1563 4.13683
lfingers 7.12502
lthumb -1.53692 34.111
rfemur -29.3238 -5.19382 16.9595
rtibia 97.3785
rfoot 29.8449 0.342335
rtoes 26.9927
lfemur -28.607 -3.17505 -19.3003
ltibia 102.253
lfoot 16.118 0.0190587
ltoes 40.9191
1206
root 7.62626 10.1069 12.7195 102.329 -2.3501 5.51944
lowerback -10.1198 1.58253 0.668972
upperback -6.71535 2.12663 -2.52944
thorax -1.19468 1.03566 -2.80614
lowerneck -0.856916 -2.14639 -1.23748
upperneck 38.9605 -3.80939 3.77945
head 13.4075 -1.26471 1.35795
rclavicle -1.59028e-015 -5.36719e-015
rhumerus 81.7605 -7.75102 -24.3233
rradius 27.7764
rwrist -16.9445
rhand -14.4085 -8.06398
rfingers 7.12502
rthumb 11.7352 -37.7153
lclavicle -1.59028e-015 -5.36719e-015
lhumerus 92.8504 -1.01665 34.2781
lradius 23.9214
lwrist 10.3093
lhand -28.3789 3.53832
lfingers 7.12502
lthumb -1.75185 33.5109
rfemur -29.7098 -5.29722 16.7789
rtibia 98.4143
rfoot 29.6811 0.947645
rtoes 26.7132
lfemur -28.9307 -3.42037 -19.1743
ltibia 103.508
lfoot 16.3226 -0.280781
ltoes 40.4304
1207
root 7.62771 10.1018 12.7556 102.496 -2.39076 5.48121
lowerback -10.2622 1.60907 0.599221
upperback -6.75049 2.16964 -2.53425
thorax -1.15392 1.0604 -2.76471
lowerneck -0.8845 -2.1141 -1.23313
upperneck 38.9961 -3.76484 3.77491
head 13.428 -1.24426 1.36056
rclavicle 0 -1.39149e-015
rhumerus 81.7216 -7.96124 -24.0628
rradius 27.8165
rwrist -16.5044
rhand -14.7496 -7.85669
rfingers 7.12502
rthumb 11.4063 -37.5264
lclavicle 0 -1.39149e-015
lhumerus 92.8295 -0.792141 34.1065
lradius 24.1669
lwrist 10.7794
lhand -28.6262 2.95613
lfingers 7.12502
lthumb -1.99073 32.9266
rfemur -30.118 -5.35446 16.6024
rtibia 99.3113
rfoot 29.5826 1.59005
rtoes 26.4212
lfemur -29.2923 -3.67199 -19.0656
ltibia 104.668
lfoot 16.4235 -0.59069
ltoes 39.9205
1208
root 7.62927 10.0973 12.7921 102.674 -2.42801 5.42079
lowerback -10.4076 1.64351 0.518057
upperback -6.7872 2.22473 -2.53667
thorax -1.11319 1.09178 -2.71305
lowerneck -0.924107 -2.09207 -1.20876
upperneck 39.0487 -3.73199 3.75293
head 13.4586 -1.22738 1.35154
rclavicle -1.11319e-014 4.96962e-015
rhumerus 81.6701 -8.16886 -23.8076
rradius 27.8713
rwrist -16.0425
rhand -15.0145 -7.64385
rfingers 7.12502
rthumb 11.1508 -37.3276
lclavicle -1.11319e-014 4.96962e-015
lhumerus 92.8114 -0.585622 33.9327
lradius 24.3593
lwrist 11.0809
lhand -28.9523 2.33221
lfingers 7.12502
lthumb -2.3056 32.2995
rfemur -30.5521 -5.35763 16.4393
rtibia 100.068
rfoot 29.5664 2.18353
rtoes 26.2244
lfemur -29.6938 -3.91293 -18.9602
ltibia 105.726
lfoot 16.4426 -0.898678
ltoes 39.4164
1209
root 7.63113 10.0934 12.829 102.864 -2.45738 5.34843
lowerback -10.5571 1.68287 0.43355
upperback -6.82655 2.28715 -2.53597
thorax -1.07307 1.12713 -2.65532
lowerneck -0.972544 -2.08113 -1.18226
upperneck 39.1094 -3.71481 3.73084
head 13.4956 -1.21652 1.34052
rclavicle -1.11319e-014 -6.16232e-015
rhumerus 81.5933 -8.3711 -23.5223
rradius 27.9559
rwrist -15.6099
rhand -15.2374 -7.45384
rfingers 7.12502
rthumb 10.9357 -37.149
lclavicle -1.11319e-014 -6.16232e-015
lhumerus 92.7957 -0.400743 33.7748
lradius 24.485
lwrist 11.1404
lhand -29.3346 1.66807
lfingers 7.12502
lthumb -2.67483 31.631
rfemur -31.0034 -5.31948 16.3012
rtibia 100.673
rfoot 29.6164 2.71057
rtoes 26.0741
lfemur -30.1384 -4.15507 -18.8548
ltibia 106.668
lfoot 16.4078 -1.20123
ltoes 38.9152
